# xmcd
#
# Track frame offsets: 
#        150
#        35920
#        64065
#        102007
#        129775
#        159565
#        188485
#        217245
#        244237
#        274870
#        299050
#
# Disc length: 4440 seconds
#
# Revision: 8
# Processed by: cddbd v1.5.2PL0 Copyright (c) Steve Scherf et al.
# Submitted via: ExactAudioCopy v1.0b3
#
DISCID=a911560b
DTITLE=Reinhard Mey - Lebenszeichen (LIVE) - CD 1
DYEAR=1997
DGENRE=Folk
TTITLE0=Freundliche Gesichter
TTITLE1=Peter
TTITLE2=Irgendein Depp bohrt irgendwo immer
TTITLE3=Drei Stühle
TTITLE4=Gib mir Musik!
TTITLE5=Ich liebe das Ende der Saison
TTITLE6=Tierpolizei
TTITLE7=Mein roter Bär
TTITLE8=Alle rennen
TTITLE9=Ohne Dich
TTITLE10=Pöter
EXTD=YEAR: 1997
EXTT0=
EXTT1=
EXTT2=
EXTT3=
EXTT4=
EXTT5=
EXTT6=
EXTT7=
EXTT8=
EXTT9=
EXTT10=
PLAYORDER=
